<?xml version="1.0" standalone="no"?>
<!DOCTYPE svg PUBLIC "-//W3C//DTD SVG 20010904//EN"
 "http://www.w3.org/TR/2001/REC-SVG-20010904/DTD/svg10.dtd">
<svg version="1.0" xmlns="http://www.w3.org/2000/svg"
 width="768.000000pt" height="768.000000pt" viewBox="0 0 768.000000 768.000000"
 preserveAspectRatio="xMidYMid meet">
<metadata>
Created by potrace 1.14, written by Peter Selinger 2001-2017
</metadata>
<g transform="translate(0.000000,768.000000) scale(0.100000,-0.100000)"
fill="#000000" stroke="none">
<path d="M867 7084 c-127 -32 -255 -146 -270 -240 -1 -11 -5 -23 -8 -29 -3 -5
-5 -1360 -4 -3010 l1 -3000 26 -56 c41 -90 111 -148 228 -189 l65 -22 2955 0
c2292 -1 2965 2 2999 12 118 32 205 103 253 207 l31 65 0 2977 c0 1637 -3
2994 -7 3016 -11 56 -51 130 -92 169 -42 39 -117 83 -157 90 -14 2 -32 8 -39
13 -21 13 -5927 11 -5981 -3z m5940 -263 c38 -16 59 -45 69 -96 4 -21 7 -1330
7 -2910 0 -2196 -3 -2883 -12 -2921 -13 -53 -41 -79 -99 -91 -41 -8 -5773 -7
-5817 1 -51 10 -80 31 -96 69 -11 26 -14 535 -14 2953 l0 2921 28 36 c15 20
41 40 58 44 16 5 1338 8 2937 8 2404 0 2913 -3 2939 -14z"/>
<path d="M2226 5540 c-5 -17 -13 -59 -20 -110 -3 -19 -8 -46 -10 -60 -3 -14
-7 -42 -10 -64 -4 -21 -9 -42 -12 -47 -6 -10 -24 -10 571 -10 594 -1 562 -1
562 14 0 11 16 115 30 192 3 17 6 39 7 50 1 11 5 26 9 33 5 6 5 13 0 13 -4 1
-259 3 -565 3 -496 2 -558 0 -562 -14z"/>
<path d="M3569 5556 c-1 -1 -3 -10 -5 -21 -2 -11 -8 -45 -14 -75 -6 -30 -12
-64 -14 -75 -7 -38 -36 -200 -41 -225 -3 -14 -8 -38 -10 -55 -3 -16 -10 -55
-16 -85 -6 -30 -12 -68 -14 -85 -3 -16 -7 -41 -10 -55 -3 -14 -12 -61 -20
-105 -15 -82 -18 -101 -36 -195 -6 -30 -12 -66 -14 -80 -2 -14 -11 -63 -20
-110 -32 -166 -32 -150 6 -151 153 -2 301 0 307 5 3 4 7 12 8 19 2 7 5 23 8
37 7 32 14 68 20 100 4 21 17 84 62 295 2 11 6 31 9 45 2 14 9 48 15 75 11 52
14 67 25 125 3 19 14 71 23 115 l17 80 313 1 313 2 -6 -42 c-3 -22 -8 -48 -10
-56 -2 -8 -7 -28 -10 -45 -2 -16 -7 -41 -10 -55 -11 -53 -17 -86 -20 -105 -2
-11 -8 -41 -14 -68 -6 -26 -14 -64 -17 -85 -5 -31 -36 -193 -50 -257 -2 -11
-7 -36 -10 -55 -4 -19 -8 -44 -11 -55 -2 -11 -14 -76 -28 -145 -13 -69 -36
-186 -51 -260 -14 -74 -28 -144 -29 -155 -2 -11 -13 -65 -24 -120 -11 -55 -22
-111 -24 -125 -3 -14 -8 -43 -12 -65 -8 -41 -9 -47 -26 -130 -5 -27 -21 -108
-34 -180 -14 -71 -27 -141 -30 -155 -4 -14 -8 -38 -11 -55 -2 -16 -9 -50 -15
-75 -5 -25 -12 -56 -14 -70 -3 -14 -7 -36 -10 -50 -2 -14 -7 -40 -10 -58 -9
-52 -35 -174 -39 -181 -2 -3 -83 -6 -180 -5 -97 0 -176 0 -176 -2 0 -1 -7 -37
-15 -80 -22 -114 -24 -126 -30 -154 -9 -41 -14 -72 -21 -115 -3 -22 -6 -44 -7
-49 -1 -6 136 -10 345 -10 192 -1 348 1 348 4 0 3 113 5 250 4 138 0 254 3
260 6 5 3 12 21 15 40 18 99 45 260 51 295 3 22 7 44 7 49 1 5 -85 9 -191 9
-106 -1 -194 2 -196 6 -3 4 4 49 15 101 10 52 21 109 24 125 6 32 42 223 50
265 3 14 8 41 11 60 3 19 7 43 10 52 3 10 7 30 10 45 2 16 14 75 25 133 11 58
22 117 24 132 2 15 7 38 11 50 4 13 8 32 9 43 1 11 4 34 8 50 4 17 8 41 11 55
7 41 76 399 93 480 8 41 16 86 18 100 2 14 20 108 40 210 20 102 45 230 55
285 11 55 22 114 25 130 3 17 8 41 10 55 7 46 46 245 51 261 4 15 37 17 323
17 l318 0 -4 -27 c-3 -14 -11 -57 -19 -96 -7 -38 -16 -83 -19 -100 -7 -37 -12
-60 -30 -150 -8 -38 -16 -84 -19 -100 -3 -17 -17 -89 -31 -160 -14 -72 -28
-143 -31 -160 -2 -16 -9 -45 -14 -62 -4 -18 -5 -33 -2 -34 45 -5 346 2 352 8
4 4 13 42 20 83 8 41 15 82 17 90 2 8 5 31 8 50 4 32 68 374 79 426 2 12 7 39
10 60 4 22 8 46 11 54 2 8 6 31 9 50 3 19 7 44 10 55 2 11 7 40 11 65 9 54 12
71 25 135 5 28 12 66 15 85 4 19 10 53 15 75 5 22 10 47 10 56 0 14 -113 16
-1210 16 -665 0 -1211 -1 -1211 -1z"/>
<path d="M2030 4475 c-7 -19 -16 -64 -25 -130 -2 -16 -9 -56 -15 -88 -6 -33
-9 -61 -6 -65 9 -9 1097 -5 1105 4 4 5 14 47 21 94 7 47 15 101 18 120 2 19 5
46 6 60 l1 25 -549 0 c-542 1 -548 0 -556 -20z"/>
<path d="M1835 3420 c-5 -19 -44 -236 -47 -269 l-3 -24 1034 1 c568 1 1035 3
1037 4 1 2 6 26 9 53 6 45 11 82 30 194 3 19 8 38 11 43 3 4 -1 9 -8 9 -7 1
-473 2 -1036 3 -907 1 -1023 0 -1027 -14z"/>
<path d="M1640 2369 c-5 -8 -11 -33 -14 -55 -7 -55 -16 -105 -22 -132 -12 -55
-15 -102 -7 -103 4 -1 389 -2 856 -3 745 -1 848 1 852 14 2 8 7 34 10 58 3 24
13 80 21 125 7 45 14 89 14 97 0 13 -101 15 -851 15 -760 0 -852 -2 -859 -16z"/>
</g>
</svg>
